<svg width="22" height="17">
	<path d="M18.989,8.206 L17.436,8.206 C16.147,10.396 13.748,11.877 11.000,11.877 C8.252,11.877 5.853,10.396 4.564,8.206 L3.011,8.206 C1.351,8.206 0.000,6.873 0.000,5.235 L0.000,0.636 C0.000,0.283 0.290,-0.002 0.647,-0.002 L4.204,-0.002 L17.796,-0.002 L21.353,-0.002 C21.710,-0.002 22.000,0.283 22.000,0.636 L22.000,5.235 C22.000,6.873 20.649,8.206 18.989,8.206 ZM1.294,5.235 C1.294,6.169 2.064,6.929 3.011,6.929 L3.971,6.929 C3.707,6.177 3.556,5.373 3.556,4.534 L3.556,1.274 L1.294,1.274 L1.294,5.235 ZM17.149,1.274 L4.851,1.274 L4.851,4.534 C4.851,7.879 7.609,10.600 11.000,10.600 C14.391,10.600 17.149,7.879 17.149,4.534 L17.149,1.274 ZM20.706,1.274 L18.444,1.274 L18.444,4.534 C18.444,5.373 18.293,6.177 18.029,6.929 L18.989,6.929 C19.936,6.929 20.706,6.169 20.706,5.235 L20.706,1.274 ZM7.661,15.725 L10.234,15.725 L10.234,14.260 C10.234,13.907 10.524,13.621 10.881,13.621 C11.239,13.621 11.528,13.907 11.528,14.260 L11.528,15.725 L14.181,15.725 C14.538,15.725 14.828,16.011 14.828,16.364 C14.828,16.718 14.538,17.003 14.181,17.003 L7.661,17.003 C7.304,17.003 7.014,16.718 7.014,16.364 C7.014,16.011 7.304,15.725 7.661,15.725 Z" class="cls-1"/>
</svg>