<svg width="14" height="17">
    <path d="M13.842,8.122 C13.840,8.144 13.836,8.168 13.831,8.190 C13.029,11.545 10.988,14.537 8.084,16.613 L7.868,16.764 C7.852,16.774 7.836,16.785 7.819,16.794 C7.572,16.930 7.291,17.001 7.006,17.001 C6.647,17.001 6.307,16.891 6.022,16.687 C3.039,14.595 0.951,11.549 0.150,8.112 C0.145,8.088 0.141,8.065 0.139,8.042 C0.043,7.597 -0.006,7.139 -0.006,6.681 C-0.006,2.997 3.137,-0.001 6.999,-0.001 C10.863,-0.001 14.006,2.997 14.006,6.681 C14.006,7.170 13.951,7.655 13.842,8.122 ZM6.999,1.000 C3.715,1.000 1.043,3.549 1.043,6.681 C1.043,7.091 1.088,7.499 1.179,7.896 C1.183,7.916 1.186,7.936 1.188,7.957 C1.945,11.131 3.882,13.944 6.648,15.886 C6.833,16.017 7.079,16.035 7.277,15.937 L7.459,15.811 C10.142,13.892 12.035,11.131 12.793,8.033 C12.795,8.009 12.799,7.987 12.804,7.964 C12.906,7.549 12.957,7.118 12.957,6.681 C12.957,3.549 10.285,1.000 6.999,1.000 ZM7.000,9.540 C5.346,9.540 4.002,8.257 4.002,6.680 C4.002,5.104 5.346,3.820 7.000,3.820 C8.653,3.820 9.998,5.104 9.998,6.680 C9.998,8.257 8.653,9.540 7.000,9.540 ZM7.000,4.822 C5.925,4.822 5.050,5.656 5.050,6.680 C5.050,7.705 5.925,8.539 7.000,8.539 C8.075,8.539 8.950,7.705 8.950,6.680 C8.950,5.656 8.075,4.822 7.000,4.822 Z" class="cls-1"/>
</svg>